PathFileType	4	(x/y/z)	S09_P20_T14
DataRate	CameraRate	NumFrames	NumMarkers	Units	OrigDataRate	OrigDataStartFrame	OrigNumFrames
240	240	9	51	mm	240	299	398
Frame#	Time	Sternum			R.Acromium			L.Acromium			Top.Head			R.ASIS			L.ASIS			R.PSIS			L.PSIS			R.Great.Tro			L.Great.Tro			R.Iliac.Crest			L.Iliac.Crest			V.Sacral			R.Thigh.Upper.Post			R.Thigh.Lower.Ant			R.Thigh.Lower.Post			R.Thigh.Upper.Ant			R.Knee.Lat			R.Knee.Med			R.Shank.Upper.Post			R.Shank.Lower.Ant			R.Shank.Lower.Post			R.Shank.Upper.Ant			R.Ankle.Lat			R.Ankle.Med			R.Heel.Upper			R.Heel.Med			R.Heel.Lat			R.Toe.Lat			R.Toe.Med			R.Toe.Tip			L.Thigh.Upper.Post			L.Thigh.Lower.Ant			L.Thigh.Lower.Post			L.Thigh.Upper.Ant			L.Knee.Lat			L.Knee.Med			L.Shank.Upper.Post			L.Shank.Lower.Ant			L.Shank.Lower.Post			L.Shank.Upper.Ant			L.Ankle.Lat			L.Ankle.Med			L.Heel.Upper			L.Heel.Med			L.Heel.Lat			L.Toe.Lat			L.Toe.Med			L.Toe.Tip			Cervical.Spine			Back			
		X1	Y1	Z1	X2	Y2	Z2	X3	Y3	Z3	X4	Y4	Z4	X5	Y5	Z5	X6	Y6	Z6	X7	Y7	Z7	X8	Y8	Z8	X9	Y9	Z9	X10	Y10	Z10	X11	Y11	Z11	X12	Y12	Z12	X13	Y13	Z13	X14	Y14	Z14	X15	Y15	Z15	X16	Y16	Z16	X17	Y17	Z17	X18	Y18	Z18	X19	Y19	Z19	X20	Y20	Z20	X21	Y21	Z21	X22	Y22	Z22	X23	Y23	Z23	X24	Y24	Z24	X25	Y25	Z25	X26	Y26	Z26	X27	Y27	Z27	X28	Y28	Z28	X29	Y29	Z29	X30	Y30	Z30	X31	Y31	Z31	X32	Y32	Z32	X33	Y33	Z33	X34	Y34	Z34	X35	Y35	Z35	X36	Y36	Z36	X37	Y37	Z37	X38	Y38	Z38	X39	Y39	Z39	X40	Y40	Z40	X41	Y41	Z41	X42	Y42	Z42	X43	Y43	Z43	X44	Y44	Z44	X45	Y45	Z45	X46	Y46	Z46	X47	Y47	Z47	X48	Y48	Z48	X49	Y49	Z49	X50	Y50	Z50	X51	Y51	Z51	

299	1.2417	257.78	1198.4	321.05	112.12	1449.9	464.8	126.47	1446.4	151.73	151.95	1751.7	310.62	193.34	1027.3	422.69	199.45	1035.5	178.48	-24.977	1048.3	338.87	-16.32	1055.8	249.82	112.11	938.59	490.61	128.52	945.35	106.47	104.68	1102.6	462.64	100.18	1129.9	143.2	-39.171	1016.4	289.48	193.03	703.81	484.71	294.92	627.24	461.97	216.84	613.6	465.59	265.03	711.66	480.14	285.35	538.9	456.62	296.84	526.85	334.66	137.94	425.29	456.38	160.29	336.6	448.31	93.52	363.89	443.63	197.9	399.18	461.16	6.5004	201.94	420.99	49.914	189.07	341.06	-48.232	215.93	355.31	-52.615	181.2	328.02	-69.528	191.68	389.51	42.972	96.546	469.5	102.7	69.334	378.18	141.95	62.796	429.81	72.371	685.92	159.77	159.48	592.16	162.4	91.924	597.12	179.9	142.78	676.91	137.76	147.47	510.8	176.34	166.98	528.15	307.31	96.92	376.83	171.04	159.58	287.23	187.1	96.427	300.61	180.86	159.32	364.7	178.32	114.48	101.6	213.04	134.14	102.09	303.81	46.319	70.827	270.25	60.839	48.168	303.2	46.882	40.998	243.53	217.69	40.83	181.91	258.78	50.22	289.02	306.97	64.415	226.51	38.01	1489.8	314.25	-5.1505	1227.2	298.82
300	1.2458	262.73	1199.1	321.09	117.13	1450.5	464.57	131.95	1447.1	151.6	157.22	1752.2	310.56	198.14	1028.2	422.37	204.39	1035.7	178.23	-20.092	1049	338.48	-11.31	1056.5	249.43	117.34	939.62	490.46	133.1	945.57	106.29	109.41	1103.4	462.28	105.41	1130.3	142.76	-34.203	1017	289.12	199.95	705.16	484.54	302.25	629.27	461.21	224.27	615.09	465.38	271.89	713.48	479.5	293.18	540.81	456.02	304.43	528.78	334.18	147.33	424.43	455.78	171.47	336.2	448.2	104.21	362.1	443.17	207.79	399.58	460.85	20.66	198.22	421.04	64.454	186	341.21	-34.438	210.63	355.27	-37.899	175.7	328.1	-55.104	186.04	389.6	59.614	93.973	470.05	120.02	67.767	378.84	159.4	62.364	430.51	75.254	686.59	159.58	161.71	592.24	162.21	94.15	597.69	179.69	145.56	677.15	137.6	149.06	510.87	176.15	168.58	528.08	307.18	97.916	377	170.96	160.31	287.24	187.02	97.249	300.82	180.81	160.27	364.7	178.19	114.65	101.72	213.1	134.31	102.18	303.83	46.405	70.983	270.32	60.871	48.26	303.25	46.943	41.173	243.57	217.72	40.807	181.9	258.87	50.052	289.02	307.06	64.182	226.5	43.257	1490.3	313.96	0.016034	1227.9	298.21
301	1.25	267.68	1199.9	321.12	122.16	1451	464.35	137.43	1447.8	151.47	162.49	1752.6	310.52	202.96	1029.1	422.03	209.31	1035.9	177.97	-15.209	1049.6	338.13	-6.3104	1057	249.09	122.61	940.61	490.34	137.68	945.75	106.1	114.16	1104.2	461.93	110.58	1130.6	142.32	-29.229	1017.6	288.82	206.77	706.46	484.34	309.44	631.21	460.44	231.56	616.5	465.14	278.64	715.21	478.86	300.85	542.65	455.4	311.87	530.63	333.69	156.68	423.45	455.15	182.63	335.75	448.1	114.9	360.19	442.69	217.6	399.92	460.55	34.986	194.38	421.12	79.144	182.87	341.38	-20.451	205.22	355.27	-22.975	170.11	328.22	-40.468	180.28	389.73	76.422	91.347	470.6	137.5	66.21	379.47	176.98	61.944	431.18	78.192	687.22	159.42	163.96	592.29	162.04	96.393	598.24	179.51	148.36	677.35	137.45	150.66	510.93	175.99	170.19	528.01	307.08	98.936	377.17	170.89	161.06	287.24	186.96	98.101	301.02	180.76	161.24	364.69	178.08	114.83	101.85	213.17	134.49	102.27	303.86	46.504	71.138	270.39	60.918	48.348	303.3	47.006	41.348	243.62	217.76	40.79	181.89	258.96	49.872	289.02	307.16	63.946	226.5	48.506	1490.8	313.67	5.1878	1228.6	297.61
302	1.2542	272.63	1200.5	321.14	127.19	1451.5	464.13	142.92	1448.4	151.35	167.75	1753	310.49	207.8	1029.9	421.68	214.21	1036	177.68	-10.324	1050.2	337.84	-1.3214	1057.5	248.8	127.92	941.57	490.25	142.26	945.89	105.89	118.94	1105	461.6	115.71	1130.9	141.89	-24.251	1018	288.56	213.48	707.68	484.14	316.48	633.04	459.67	238.71	617.84	464.87	285.28	716.83	478.22	308.36	544.4	454.76	319.14	532.39	333.19	165.98	422.37	454.49	193.77	335.24	448	125.61	358.18	442.19	227.34	400.2	460.24	49.48	190.45	421.22	93.985	179.68	341.57	-6.2656	199.7	355.29	-7.8375	164.43	328.38	-25.613	174.41	389.89	93.39	88.683	471.15	155.12	64.677	380.1	194.67	61.546	431.83	81.178	687.81	159.28	166.22	592.32	161.9	98.653	598.77	179.35	151.16	677.53	137.33	152.29	510.98	175.85	171.81	527.94	307	99.982	377.34	170.84	161.83	287.23	186.92	98.985	301.23	180.72	162.25	364.68	178	115.02	101.98	213.26	134.67	102.34	303.9	46.616	71.294	270.47	60.981	48.433	303.36	47.073	41.524	243.67	217.8	40.78	181.89	259.06	49.68	289.03	307.25	63.707	226.51	53.754	1491.3	313.4	10.364	1229.3	297.03
303	1.2583	277.58	1201.2	321.14	132.24	1451.9	463.92	148.4	1449	151.23	173	1753.4	310.48	212.67	1030.6	421.3	219.08	1036.1	177.36	-5.4375	1050.7	337.6	3.6567	1058	248.56	133.27	942.48	490.18	146.84	945.98	105.67	123.75	1105.7	461.28	120.8	1131.1	141.45	-19.267	1018.5	288.36	220.08	708.83	483.92	323.38	634.76	458.89	245.73	619.1	464.57	291.82	718.35	477.58	315.7	546.06	454.11	326.27	534.07	332.7	175.24	421.17	453.8	204.91	334.67	447.9	136.32	356.07	441.68	237.02	400.4	459.92	64.144	186.43	421.33	108.98	176.44	341.78	8.1249	194.1	355.34	7.5213	158.68	328.58	-10.539	168.45	390.07	110.51	85.998	471.7	172.89	63.178	380.72	212.48	61.182	432.48	84.203	688.35	159.17	168.49	592.34	161.78	100.93	599.27	179.22	153.98	677.69	137.22	153.94	511.02	175.72	173.45	527.86	306.94	101.06	377.5	170.81	162.62	287.22	186.9	99.902	301.43	180.69	163.28	364.65	177.93	115.21	102.11	213.35	134.85	102.42	303.96	46.742	71.448	270.56	61.058	48.515	303.43	47.141	41.7	243.72	217.84	40.776	181.89	259.15	49.477	289.05	307.35	63.464	226.53	59.004	1491.7	313.13	15.545	1229.9	296.47
304	1.2625	282.53	1201.8	321.13	137.29	1452.3	463.72	153.88	1449.5	151.11	178.25	1753.7	310.48	217.56	1031.3	420.92	223.94	1036.2	177.03	-0.54724	1051.1	337.41	8.6235	1058.3	248.37	138.65	943.33	490.13	151.41	946.03	105.44	128.6	1106.3	460.97	125.83	1131.3	141.02	-14.278	1018.8	288.21	226.57	709.89	483.68	330.13	636.37	458.1	252.6	620.27	464.25	298.26	719.76	476.93	322.88	547.62	453.45	333.23	535.65	332.2	184.45	419.85	453.09	216.02	334.05	447.8	147.05	353.85	441.15	246.62	400.53	459.59	78.976	182.35	421.45	124.13	173.18	342.01	22.726	188.42	355.41	23.107	152.89	328.8	4.7579	162.42	390.25	127.78	83.307	472.25	190.79	61.725	381.34	230.39	60.862	433.13	87.257	688.86	159.08	170.77	592.34	161.67	103.23	599.75	179.11	156.8	677.82	137.13	155.62	511.04	175.62	175.11	527.78	306.89	102.16	377.66	170.78	163.44	287.2	186.9	100.85	301.64	180.67	164.34	364.62	177.89	115.42	102.25	213.45	135.05	102.48	304.04	46.881	71.601	270.65	61.149	48.594	303.51	47.211	41.878	243.78	217.88	40.777	181.9	259.25	49.264	289.07	307.45	63.219	226.56	64.255	1492	312.87	20.729	1230.4	295.91
305	1.2667	287.49	1202.4	321.11	142.35	1452.7	463.53	159.36	1450	150.99	183.5	1754	310.48	222.48	1031.9	420.51	228.77	1036.2	176.67	4.3483	1051.5	337.27	13.579	1058.6	248.23	144.06	944.14	490.1	155.97	946.04	105.2	133.48	1106.8	460.68	130.82	1131.4	140.59	-9.2841	1019.1	288.11	232.96	710.87	483.43	336.74	637.86	457.31	259.32	621.35	463.89	304.58	721.05	476.29	329.89	549.08	452.77	340.05	537.13	331.69	193.63	418.42	452.36	227.12	333.37	447.7	157.79	351.52	440.61	256.15	400.58	459.26	93.978	178.21	421.58	139.43	169.9	342.26	37.541	182.69	355.47	38.923	147.07	329.03	20.279	156.35	390.45	145.18	80.626	472.81	208.82	60.331	381.97	248.39	60.598	433.79	90.329	689.34	159.03	173.07	592.32	161.59	105.54	600.2	179.02	159.63	677.94	137.06	157.32	511.06	175.53	176.79	527.69	306.86	103.29	377.82	170.77	164.29	287.17	186.93	101.83	301.85	180.64	165.43	364.58	177.86	115.63	102.39	213.57	135.25	102.54	304.13	47.031	71.753	270.74	61.25	48.671	303.59	47.283	42.057	243.85	217.93	40.782	181.92	259.35	49.041	289.1	307.55	62.97	226.59	69.508	1492.3	312.61	25.916	1230.9	295.38
306	1.2708	292.46	1202.9	321.07	147.42	1452.9	463.34	164.84	1450.5	150.87	188.74	1754.2	310.5	227.43	1032.5	420.09	233.6	1036.2	176.28	9.2509	1051.7	337.18	18.524	1058.8	248.13	149.5	944.89	490.08	160.52	946.01	104.95	138.41	1107.3	460.39	135.77	1131.5	140.18	-4.2839	1019.3	288.06	239.23	711.76	483.16	343.2	639.22	456.51	265.9	622.34	463.51	310.8	722.23	475.65	336.72	550.42	452.07	346.7	538.5	331.18	202.77	416.86	451.61	238.21	332.65	447.59	168.55	349.11	440.05	265.6	400.56	458.92	109.15	174.04	421.71	154.88	166.62	342.52	52.577	176.92	355.54	54.974	141.24	329.27	36.025	150.24	390.63	162.71	77.972	473.37	226.97	59.009	382.62	266.47	60.401	434.48	93.411	689.79	159	175.37	592.3	161.52	107.88	600.63	178.95	162.48	678.03	137	159.04	511.07	175.45	178.5	527.61	306.83	104.45	377.97	170.77	165.16	287.14	186.96	102.84	302.06	180.62	166.55	364.54	177.85	115.85	102.54	213.69	135.47	102.6	304.24	47.191	71.905	270.84	61.36	48.747	303.67	47.355	42.238	243.91	217.97	40.789	181.95	259.46	48.81	289.14	307.65	62.719	226.63	74.763	1492.6	312.37	31.106	1231.3	294.86
307	1.275	297.44	1203.4	321.02	152.5	1453.2	463.17	170.32	1450.8	150.76	193.97	1754.4	310.53	232.4	1032.9	419.65	238.41	1036.2	175.88	14.162	1051.9	337.14	23.459	1059	248.08	154.96	945.58	490.08	165.07	945.95	104.69	143.39	1107.8	460.11	140.67	1131.5	139.77	0.7225	1019.4	288.06	245.39	712.55	482.88	349.52	640.45	455.71	272.33	623.23	463.1	316.9	723.3	475.01	343.39	551.66	451.36	353.21	539.76	330.67	211.87	415.2	450.84	249.27	331.88	447.47	179.33	346.6	439.47	274.99	400.47	458.57	124.48	169.85	421.84	170.49	163.36	342.8	67.835	171.13	355.6	71.26	135.43	329.5	51.995	144.13	390.8	180.37	75.358	473.94	245.24	57.773	383.29	284.62	60.283	435.21	96.497	690.21	159.01	177.68	592.27	161.46	110.25	601.03	178.9	165.33	678.1	136.97	160.79	511.08	175.38	180.24	527.52	306.81	105.63	378.12	170.77	166.05	287.11	187.02	103.87	302.28	180.59	167.69	364.49	177.86	116.09	102.68	213.82	135.7	102.66	304.36	47.358	72.055	270.94	61.474	48.822	303.77	47.428	42.422	243.98	218.02	40.799	181.98	259.56	48.571	289.18	307.75	62.464	226.68	80.02	1492.8	312.14	36.298	1231.7	294.35
